<?xml version="1.0" encoding="utf-8"?>
<!-- Generator: Adobe Illustrator 19.0.0, SVG Export Plug-In . SVG Version: 6.00 Build 0)  -->
<svg version="1.1" id="Layer_1" xmlns="http://www.w3.org/2000/svg" xmlns:xlink="http://www.w3.org/1999/xlink" x="0px" y="0px"
	 viewBox="0 0 100 100" style="enable-background:new 0 0 100 100;" xml:space="preserve">
<style type="text/css">
	.st0{fill:#FFD254;}
	.st1{fill:none;}
	.st2{fill:none;stroke:#375363;stroke-width:1.7199;stroke-miterlimit:10;}
	.st3{clip-path:url(#XMLID_1_);}
	.st4{fill:#E0D4AB;stroke:#375363;stroke-width:1.938;stroke-miterlimit:10;}
	.st5{fill:#222222;}
	.st6{fill:#375363;}
	.st7{fill:none;stroke:#375363;stroke-width:1.938;stroke-miterlimit:10;}
	.st8{fill:#E0D4AB;}
</style>
<g id="XMLID_27_">
	<g id="XMLID_52_">
		<g id="XMLID_60_">
			<g id="XMLID_63_">
				<circle id="XMLID_25_" class="st0" cx="49.6" cy="50" r="46"/>
				<path id="XMLID_x5F_1_x5F_" class="st1" d="M76.1,46.5c1.9,14.6-8.3,28-22.9,30c-14.6,1.9-28-8.3-30-22.9
					c-2-14.6,8.3-28,22.9-30C60.7,21.6,74.1,31.9,76.1,46.5z"/>
				<text id="XMLID_24_">				<textPath  xlink:href="#XMLID_x5F_1_x5F_" startOffset="80.836%">
<tspan  class="st6" style="font-family:'TrajanPro-Bold'; font-size:12.9048px;">ASpot</tspan>				</textPath>
</text>
				<circle id="XMLID_23_" class="st2" cx="49.6" cy="50" r="41.3"/>
				<g id="XMLID_64_">
					<defs>
						<circle id="XMLID_12_" cx="49.6" cy="50" r="41.3"/>
					</defs>
					<clipPath id="XMLID_29_">
						<use xlink:href="#XMLID_12_"  style="overflow:visible;"/>
					</clipPath>
					<g id="XMLID_66_" style="clip-path:url(#XMLID_29_);">
						<g id="XMLID_68_">
							<g id="XMLID_75_">
								<path id="XMLID_22_" class="st4" d="M56.6,65.1c0,0.9-0.7,1.6-1.6,1.6H44c-0.9,0-1.6-0.7-1.6-1.6V56c0-0.9,0.7-1.6,1.6-1.6
									h11c0.9,0,1.6,0.7,1.6,1.6V65.1z"/>
								<path id="XMLID_21_" class="st4" d="M56.6,52.4c0,0.9-0.7,1.6-1.6,1.6H44c-0.9,0-1.6-0.7-1.6-1.6v-9.1
									c0-0.9,0.7-1.6,1.6-1.6h11c0.9,0,1.6,0.7,1.6,1.6V52.4z"/>
								<circle id="XMLID_20_" class="st5" cx="44.3" cy="65.4" r="0.5"/>
								<circle id="XMLID_19_" class="st5" cx="54.7" cy="65.4" r="0.5"/>
								<path id="XMLID_18_" class="st6" d="M64.1,43.4H49.6H35.2c-2.9,0.4-1.2,6.3-0.4,6.3c0.7-0.1,5.5-1.4,6.2,2.1
									c1.2,5.7,8.7,7.5,8.7,7.5s7.6-1.8,8.7-7.5c0.7-3.5,5.5-2.1,6.2-2.1C65.3,49.7,67,43.8,64.1,43.4z"/>
							</g>
							<g id="XMLID_72_">
								<circle id="XMLID_17_" class="st6" cx="49.4" cy="51.1" r="3"/>
								<circle id="XMLID_16_" class="st7" cx="49.4" cy="51.1" r="4.6"/>
							</g>
							<g id="XMLID_69_">
								<path id="XMLID_15_" class="st6" d="M69.6,53.5c0,1.2-0.9,2.1-2.1,2.1h-2.7c-1.2,0-2.1-0.9-2.1-2.1l0-13
									c0-1.2,0.9-2.1,2.1-2.1h2.7c1.2,0,2.1,0.9,2.1,2.1V53.5z"/>
								<path id="XMLID_14_" class="st6" d="M36.6,53.5c0,1.2-0.9,2.1-2.1,2.1h-2.7c-1.2,0-2.1-0.9-2.1-2.1v-13
									c0-1.2,0.9-2.1,2.1-2.1h2.7c1.2,0,2.1,0.9,2.1,2.1V53.5z"/>
							</g>
						</g>
						<path id="XMLID_13_" class="st6" d="M69.8,101.8v-7.3v-7.3V67.4c0,0-9.7-3.6-11.3-18.2c0,0-1.2-17.7-8.9-18.2
							c-7.7,0.4-8.9,18.2-8.9,18.2c-1.6,14.5-11.3,18.2-11.3,18.2v19.8v7.3v7.3H69.8z"/>
					</g>
					<use xlink:href="#XMLID_12_"  style="overflow:visible;fill:none;stroke:#375363;stroke-width:3;stroke-miterlimit:10;"/>
				</g>
			</g>
			<circle id="XMLID_11_" class="st6" cx="17.5" cy="41.5" r="2.2"/>
			<circle id="XMLID_10_" class="st6" cx="82.7" cy="41.5" r="2.2"/>
		</g>
		<g id="XMLID_53_">
			<g id="XMLID_57_">
				<circle id="XMLID_9_" class="st8" cx="46.6" cy="60.8" r="0.7"/>
				<circle id="XMLID_8_" class="st8" cx="52.7" cy="60.8" r="0.7"/>
			</g>
			<g id="XMLID_54_">
				<circle id="XMLID_7_" class="st8" cx="46.6" cy="65.8" r="0.7"/>
				<circle id="XMLID_6_" class="st8" cx="52.7" cy="65.8" r="0.7"/>
			</g>
		</g>
	</g>
	<g id="XMLID_5_">
		<path id="XMLID_39_" class="st8" d="M46,34.9c0,0,0.2-0.6,0.9-1.2c0.3-0.3,0.8-0.7,1.3-0.9c0.3-0.1,0.6-0.3,0.9-0.3
			c0.2,0,0.3-0.1,0.5-0.1l0.5,0c0.3,0,0.7,0.1,1,0.2c0.3,0.1,0.6,0.3,0.8,0.4c0.2,0.2,0.5,0.4,0.7,0.5c0.2,0.2,0.3,0.4,0.5,0.6
			c0.3,0.3,0.4,0.7,0.6,0.9c0.1,0.2,0.2,0.4,0.2,0.4s-0.1-0.1-0.3-0.3c-0.2-0.1-0.5-0.4-0.8-0.7c-0.2-0.1-0.4-0.3-0.5-0.4
			c-0.2-0.1-0.4-0.2-0.6-0.4c-0.2-0.1-0.5-0.2-0.7-0.3c-0.2,0-0.5-0.1-0.7-0.1l-0.4,0c-0.1,0-0.2,0-0.4,0c-0.2,0-0.5,0.1-0.7,0.2
			c-0.2,0.1-0.5,0.2-0.7,0.3c-0.2,0.1-0.4,0.2-0.6,0.3C46.5,34.5,46,34.9,46,34.9z"/>
	</g>
	<g id="XMLID_4_">
		<path id="XMLID_37_" class="st8" d="M30.7,41.3c0,0,0.2,0.8,0.3,2c0.1,1.2,0.2,2.8,0.2,4.3c0,1.6-0.1,3.1-0.2,4.3
			c-0.1,1.2-0.3,2-0.3,2s-0.2-0.8-0.3-2c-0.1-1.2-0.2-2.8-0.2-4.3c0-1.6,0.1-3.1,0.2-4.3C30.5,42.1,30.7,41.3,30.7,41.3z"/>
	</g>
	<g id="XMLID_3_">
		<path id="XMLID_35_" class="st8" d="M68.5,41.3c0,0,0.2,0.8,0.3,2c0.1,1.2,0.2,2.8,0.2,4.3c0,1.6-0.1,3.1-0.2,4.3
			c-0.1,1.2-0.3,2-0.3,2s-0.2-0.8-0.3-2c-0.1-1.2-0.2-2.8-0.2-4.3c0-1.6,0.1-3.1,0.2-4.3C68.3,42.1,68.5,41.3,68.5,41.3z"/>
	</g>
	<g id="XMLID_2_">
		<path id="XMLID_40_" class="st8" d="M40.1,57.4c-0.4,1.2-0.9,2.3-1.5,3.3c-0.3,0.5-0.6,1-1,1.6c-0.4,0.5-0.7,1-1.1,1.5
			c-0.8,1-1.6,1.9-2.6,2.7c-0.5,0.4-0.9,0.8-1.5,1.2c-0.5,0.4-1,0.7-1.6,1l0.2-0.4c0,2.7,0,5.4-0.1,8.1l-0.1,4.1
			c-0.1,1.4-0.1,2.7-0.3,4.1c-0.1-1.4-0.2-2.7-0.3-4.1l-0.1-4.1c-0.1-2.7-0.1-5.4-0.1-8.1l0-0.3l0.2-0.2c0.5-0.3,1-0.6,1.5-1
			c0.5-0.3,1-0.7,1.4-1.1c0.5-0.4,0.9-0.8,1.3-1.2c0.4-0.4,0.9-0.8,1.3-1.3c0.4-0.4,0.8-0.9,1.2-1.4c0.4-0.5,0.7-1,1.1-1.4
			C38.9,59.5,39.5,58.4,40.1,57.4z"/>
	</g>
</g>
</svg>
